<svg fill="#22252c" width="20px" xmlns="http://www.w3.org/2000/svg" viewBox="0 0 36 36"><title>shopping cart</title><path d="M27 27C25.4 27 24 28.4 24 30 24 31.7 25.4 33 27 33 28.7 33 30 31.7 30 30 30 28.4 28.7 27 27 27L27 27ZM3 3L3 6 6 6 11.4 17.4 9.4 21.1C9.1 21.5 9 22 9 22.5 9 24.2 10.4 25.5 12 25.5L30 25.5 30 22.5 12.6 22.5C12.4 22.5 12.3 22.3 12.3 22.1L12.3 21.9 13.7 19.5 24.8 19.5C26 19.5 26.9 18.9 27.5 18L32.8 8.2C32.9 8 33 7.8 33 7.5 33 6.7 32.3 6 31.5 6L9.3 6 7.9 3 3 3ZM12 27C10.4 27 9 28.4 9 30 9 31.7 10.4 33 12 33 13.7 33 15 31.7 15 30 15 28.4 13.7 27 12 27L12 27Z"></path></svg>