<svg class="svg-icon" style="width: 1em; height: 1em;vertical-align: middle;fill: currentColor;overflow: hidden;" viewBox="0 0 1024 1024" version="1.1" xmlns="http://www.w3.org/2000/svg"><path d="M958.68 723.75c0 10.826-4.519 21.38-12.398 28.955-7.788 7.485-18.015 11.501-28.79 11.309-10.763-0.193-20.794-4.568-28.244-12.323L509.404 357.493 134.987 753.298c-15.316 16.155-40.906 16.873-57.028 1.587-8.15-7.726-12.64-18.159-12.64-29.371 0-10.339 3.921-20.165 11.037-27.671L479.464 271.66c11.628-12.326 30.119-15.508 46.127-7.99a28.623 28.623 0 0 0 2.95 1.835 118.3 118.3 0 0 0 3.288 1.78c1.556 0.821 3.04 1.604 3.897 2.249 0.457 0.56 1.007 1.206 1.68 1.908a21.733 21.733 0 0 0 4.229 3.532L947.32 695.833c7.345 7.554 11.36 17.45 11.36 27.918z"  /></svg>