<svg xmlns="http://www.w3.org/2000/svg" viewBox="0 0 688.83 227.04"><defs><style>.cls-1{fill:#21409a;}.cls-2{fill:#ed1c24;}</style></defs><title>Asset 1</title><g id="Layer_2" data-name="Layer 2"><g id="Layer_1-2" data-name="Layer 1"><path class="cls-1" d="M193.89,29.11c-21.68.28-38.92,18.35-38.92,40V81a3.36,3.36,0,0,0,3.35,3.36h20.87A3.36,3.36,0,0,0,182.55,81V68.84A12.05,12.05,0,0,1,194,56.7a11.86,11.86,0,0,1,12.29,11.85v31.77H194.41A39.44,39.44,0,0,0,155,139.76v30.42c0,21.68,17.24,39.75,38.92,40a39.44,39.44,0,0,0,40-39.44V68.55A39.44,39.44,0,0,0,193.89,29.11Zm12.38,141.66a11.86,11.86,0,1,1-23.72,0v-31a11.86,11.86,0,0,1,11.86-11.86h11.86Z"/><path class="cls-1" d="M571.24,29.29c-21.67.28-38.92,18.35-38.92,40v11.9a3.35,3.35,0,0,0,3.36,3.35h20.87a3.35,3.35,0,0,0,3.35-3.35V69a12,12,0,0,1,11.43-12.13,11.87,11.87,0,0,1,12.3,11.85v31.76H571.77a39.45,39.45,0,0,0-39.45,39.45v30.42c0,21.67,17.25,39.74,38.92,40a39.44,39.44,0,0,0,40-39.44V68.73A39.44,39.44,0,0,0,571.24,29.29Zm12.39,141.65a11.87,11.87,0,0,1-23.73,0v-31a11.87,11.87,0,0,1,11.87-11.86h11.86Z"/><path class="cls-1" d="M299.61,29.11H287.75a39.44,39.44,0,0,0-39.44,39.44V210.21h27.58V68.55a11.86,11.86,0,0,1,11.86-11.86h23.54a2.87,2.87,0,0,0,2.87-2.86V32.46a3.35,3.35,0,0,0-3.36-3.35Z"/><rect class="cls-1" x="391.27" y="29.06" width="27.58" height="181.15" rx="3.35"/><path class="cls-1" d="M375.55,29.11H354V3.35A3.35,3.35,0,0,0,350.65,0H329.77a3.35,3.35,0,0,0-3.35,3.35V158.74a89.75,89.75,0,0,0,30.45,67.47,3.36,3.36,0,0,0,4.59-.15l14.89-14.89a3.34,3.34,0,0,0-.2-4.92A62,62,0,0,1,354,158.74V56.69h21.55a3.35,3.35,0,0,0,3.35-3.35V32.46A3.35,3.35,0,0,0,375.55,29.11Z"/><path class="cls-2" d="M433.31,53.29a3.35,3.35,0,0,0,3.35,3.35h36.09A11.86,11.86,0,0,1,484.61,68.5v36.94a3.35,3.35,0,0,0,3.36,3.35h20.87a3.36,3.36,0,0,0,3.36-3.35V68.5a39.44,39.44,0,0,0-39.45-39.44H436.66a3.35,3.35,0,0,0-3.35,3.35Z"/><path class="cls-1" d="M512.2,186a3.36,3.36,0,0,0-3.36-3.35H472.75a11.86,11.86,0,0,1-11.86-11.86V103.55a3.36,3.36,0,0,0-3.35-3.36H436.66a3.36,3.36,0,0,0-3.35,3.36v67.22a39.44,39.44,0,0,0,39.44,39.44h36.09a3.36,3.36,0,0,0,3.36-3.35Z"/><circle class="cls-2" cx="523.18" cy="23.31" r="16.24"/><path class="cls-1" d="M98.61,29.46A41,41,0,0,0,70.34,41.18,41.31,41.31,0,0,0,41.08,29.46C18.24,29.69,0,48.64,0,71.48V206.86a3.35,3.35,0,0,0,3.35,3.35H22.09a3.35,3.35,0,0,0,3.35-3.35V71A16.06,16.06,0,0,1,42,54.91,16.27,16.27,0,0,1,57.53,71.29V206.86a3.36,3.36,0,0,0,3.36,3.35H79.62A3.36,3.36,0,0,0,83,206.86V71a16.06,16.06,0,0,1,16.53-16,16.28,16.28,0,0,1,15.56,16.38V206.86a3.35,3.35,0,0,0,3.35,3.35h18.73a3.35,3.35,0,0,0,3.36-3.35V71A41.54,41.54,0,0,0,98.61,29.46Z"/><path class="cls-1" d="M629.72,199.51a2.14,2.14,0,0,1-2.27-2.27v-4.08a2.14,2.14,0,0,1,2.27-2.27h56.84a2.14,2.14,0,0,1,2.27,2.27v4.08a2.15,2.15,0,0,1-2.27,2.27Z"/><path class="cls-1" d="M629.72,157.56a2.14,2.14,0,0,1-2.27-2.27v-2.63a3.62,3.62,0,0,1,2.08-3.18l42.68-25.42c-3.27.18-6.45.18-8.9.18H629.72a2.14,2.14,0,0,1-2.27-2.27v-4a2.14,2.14,0,0,1,2.27-2.27h56.84a2.14,2.14,0,0,1,2.27,2.27v2.9a3.69,3.69,0,0,1-2.09,3.18l-42,25.24c3.27-.27,6.63-.36,9-.36h32.87a2.15,2.15,0,0,1,2.27,2.27v4.08a2.14,2.14,0,0,1-2.27,2.27Z"/><path class="cls-1" d="M629.72,82.29A2.14,2.14,0,0,1,627.45,80V75.94a2.14,2.14,0,0,1,2.27-2.27H658L629.26,53a4,4,0,0,1-1.81-3.45V45.34c0-1.64,1.54-2.27,2.9-1.27l24.52,17.61,31-20.79a1.8,1.8,0,0,1,3,1.45v4.45a3.89,3.89,0,0,1-2,3.45L662,66.86l9.53,6.81h15a2.15,2.15,0,0,1,2.27,2.27V80a2.14,2.14,0,0,1-2.27,2.27Z"/></g></g></svg>