<svg version="1.0" id="ICONS" xmlns="http://www.w3.org/2000/svg" xmlns:xlink="http://www.w3.org/1999/xlink" x="0px" y="0px" viewBox="0 0 19.978 18.35" style="enable-background:new 0 0 19.978 18.35;" xml:space="preserve">
<style type="text/css">
</style>
<path d="M19.978,5.075c0-0.3-0.2-0.6-0.5-0.8l-9.1-4.2c-0.2-0.1-0.5-0.1-0.7,0l-9.2,4.3c-0.4,0.2-0.6,0.7-0.4,1.1
	c0.1,0.2,0.2,0.3,0.4,0.4l2.9,1.3l-2.9,1.3c-0.4,0.2-0.6,0.7-0.4,1.1c0.1,0.2,0.2,0.3,0.4,0.4l2.9,1.3l-2.9,1.3
	c-0.4,0.2-0.6,0.7-0.4,1.1c0.1,0.2,0.2,0.3,0.4,0.4l9.1,4.2c0.2,0.1,0.5,0.1,0.7,0l9.1-4.2c0.4-0.2,0.6-0.7,0.4-1.1
	c-0.1-0.2-0.2-0.3-0.4-0.4l-2.9-1.3l2.9-1.3c0.4-0.2,0.6-0.7,0.4-1.1c-0.1-0.2-0.2-0.3-0.4-0.4l-2.9-1.3l2.9-1.3
	C19.778,5.775,19.978,5.475,19.978,5.075z M17.078,9.275l-7.1,3.2l-7.1-3.2l2.6-1.2l4.2,1.9c0.2,0.1,0.5,0.1,0.7,0l4.2-1.9
	L17.078,9.275z M9.978,8.375l-7.1-3.3l7.1-3.2l7.1,3.2L9.978,8.375z"></path>
</svg>