<svg version="1.0" xmlns="http://www.w3.org/2000/svg"
 width="512.000000pt" height="512.000000pt" viewBox="0 0 512.000000 512.000000"
 preserveAspectRatio="xMidYMid meet">
<g transform="translate(0.000000,512.000000) scale(0.100000,-0.100000)"
fill="#fff" stroke="none">
<path d="M1850 5079 c-479 -54 -906 -258 -1242 -594 -326 -326 -531 -735 -592
-1183 -20 -145 -21 -433 -1 -572 50 -353 189 -684 406 -972 80 -106 280 -306
386 -386 255 -193 541 -324 843 -386 525 -108 1095 -2 1541 287 l54 35 600
-597 c657 -653 650 -648 792 -673 184 -31 367 64 446 232 54 114 50 271 -11
380 -15 28 -250 271 -635 656 l-610 612 37 61 c129 212 231 523 266 811 14
120 12 346 -4 480 -70 558 -358 1059 -804 1398 -412 314 -963 468 -1472 411z
m375 -680 c493 -59 910 -364 1113 -817 233 -517 124 -1131 -275 -1535 -244
-248 -537 -386 -881 -416 -567 -50 -1116 264 -1367 784 -55 113 -109 292 -125
412 -16 115 -8 369 15 473 65 298 229 575 453 766 304 259 686 379 1067 333z"/>
</g>
</svg>
