<svg xmlns="http://www.w3.org/2000/svg" viewBox="0 0 28 25.688"><title>Designs</title><path d="M.565,22.623a2.6,2.6,0,0,0-.292,2.761,2.57,2.57,0,0,0,2.336,1.46H6.987a5.839,5.839,0,0,0,5.825-5.852q0-.3-.033-.608L25.4,8.816a4.414,4.414,0,1,0-6.025-6.452c-.074.069-.147.142-.216.217L7.6,15.206a5.838,5.838,0,0,0-6.448,5.8A2.541,2.541,0,0,1,.565,22.623ZM20.882,4.16a2.081,2.081,0,0,1,3.062,2.82c-.038.041-.078.081-.12.119L11.964,17.964a5.766,5.766,0,0,0-1.944-1.947ZM2.4,24.065a4.849,4.849,0,0,0,1.088-3.059,3.486,3.486,0,0,1,1.323-2.741A3.451,3.451,0,0,1,6.97,17.5a3.878,3.878,0,0,1,.846.1,3.5,3.5,0,0,1-.829,6.91H2.609a.241.241,0,0,1-.234-.143A.269.269,0,0,1,2.4,24.065Z" transform="translate(-0.005 -1.156)" fill="#ee5050"></path><path d="M4.652,4.659A1.168,1.168,0,0,0,3.484,5.827V6.994H2.317a1.168,1.168,0,1,0,0,2.335H3.484V10.5a1.168,1.168,0,0,0,2.336,0V9.329H6.987a1.168,1.168,0,1,0,0-2.335H5.82V5.827A1.168,1.168,0,0,0,4.652,4.659Z" transform="translate(-0.005 -1.156)" fill="#ee5050"></path><path d="M28.005,19.838a1.168,1.168,0,0,0-1.168-1.168H24.5V16.335a1.168,1.168,0,0,0-2.336,0V18.67H19.831a1.168,1.168,0,0,0,0,2.336h2.335v2.335a1.168,1.168,0,0,0,2.336,0V21.006h2.335A1.168,1.168,0,0,0,28.005,19.838Z" transform="translate(-0.005 -1.156)" fill="#ee5050"></path><circle cx="12.225" cy="1.751" r="1.751" fill="#ee5050"></circle></svg>