<svg xmlns="http://www.w3.org/2000/svg" viewBox="0 0 28.001 28"><title>Nature</title><path d="M.376,27.629a1.272,1.272,0,0,0,1.8,0l3.7-3.705a12.373,12.373,0,0,0,7.806,2.8,14.186,14.186,0,0,0,10.111-4.181,1.27,1.27,0,0,0,0-1.8,1.2,1.2,0,0,0-.191-.157l-1.723-1.151c2.346-1.116,4.842-3.056,4.842-5.431a1.275,1.275,0,0,0-.381-.89l-1.654-1.653c2.436-2.709,3.46-5.914,3.307-10.213A1.272,1.272,0,0,0,26.756.014c-4.3-.149-7.5.871-10.212,3.307L14.89,1.668A1.269,1.269,0,0,0,14,1.286c-2.369,0-4.308,2.49-5.424,4.836L7.418,4.405a1.272,1.272,0,0,0-1.764-.351,1.363,1.363,0,0,0-.191.157A14.191,14.191,0,0,0,1.282,14.322h0a12.379,12.379,0,0,0,2.8,7.806l-3.7,3.7A1.271,1.271,0,0,0,.376,27.629Zm3.45-13.307A11.657,11.657,0,0,1,6.229,7.2L7.854,9.632a1.272,1.272,0,0,0,2.3-.419c.483-2.1,2.111-4.77,3.414-5.282l2.08,2.08a1.273,1.273,0,0,0,1.8,0l.026-.028a10.413,10.413,0,0,1,7.977-3.424,10.455,10.455,0,0,1-3.424,7.987,1.272,1.272,0,0,0-.055,1.8l.026.027,2.077,2.079c-.522,1.3-3.18,2.932-5.278,3.412a1.272,1.272,0,0,0-.42,2.3l2.435,1.625a11.659,11.659,0,0,1-7.125,2.394,9.806,9.806,0,0,1-5.99-2.067l4.655-4.658a1.272,1.272,0,0,0-1.8-1.8L5.892,20.312A9.809,9.809,0,0,1,3.826,14.322Z" transform="translate(-0.004 0)" fill="#27a6ff"></path></svg>