<svg xmlns="http://www.w3.org/2000/svg" viewBox="0 0 27.999 28"><title>Music</title><path d="M21,15.273a4.455,4.455,0,0,0,0,8.909H23.55A4.454,4.454,0,0,0,28,19.728V1.274A1.271,1.271,0,0,0,26.445.033L9.9,3.851a1.271,1.271,0,0,0-.986,1.241v14H4.459a4.455,4.455,0,0,0,0,8.909H7.005a4.454,4.454,0,0,0,4.454-4.454V12.467l14-3.239v6.045Zm4.455,4.455a1.909,1.909,0,0,1-1.909,1.909H21a1.91,1.91,0,0,1,0-3.819h4.455ZM8.914,23.546a1.909,1.909,0,0,1-1.909,1.909H4.459a1.909,1.909,0,0,1,0-3.818H8.914ZM11.459,9.864V6.1l14-3.239V6.625Z" transform="translate(-0.005 0)" fill="#ee5050"></path></svg>