<svg xmlns="http://www.w3.org/2000/svg" viewBox="0 0 24.069 28"><title>Office</title><path d="M20.334,7.56a1.312,1.312,0,1,0-1.855-1.855L8.651,15.534a4.093,4.093,0,0,0,0,5.785,4.187,4.187,0,0,0,5.786,0l9.828-9.828a6.88,6.88,0,0,0-9.717-9.717L4.719,11.6A9.652,9.652,0,0,0,18.368,25.251l7.208-7.208a1.311,1.311,0,0,0-1.855-1.854L16.514,23.4a7.029,7.029,0,0,1-9.94-9.94h0L16.4,3.628a4.259,4.259,0,0,1,6.009,6.009l-9.829,9.828a1.469,1.469,0,0,1-2.077-2.077Z" transform="translate(-1.97 0)" fill="#27a6ff"></path></svg>