<svg xmlns="http://www.w3.org/2000/svg" viewBox="0 0 27.106 28"><title>Holidays</title><path d="M25.982,16.93l-2.968.8L19.8,15.868V12.132l3.217-1.858,2.968.8a1.184,1.184,0,0,0,.318.044,1.273,1.273,0,0,0,.318-2.5l-2.249-.6.6-2.246a1.273,1.273,0,1,0-2.348-.982,1.286,1.286,0,0,0-.086.31l-.8,2.966-3.271,1.9L15.289,8.165V4.347l2.173-2.173a1.273,1.273,0,0,0-1.8-1.8L14.016,2.018,12.371.373a1.273,1.273,0,0,0-1.8,1.8l2.173,2.173V8.165L9.562,9.959,6.291,8.069,5.5,5.091a1.273,1.273,0,0,0-2.484.554c.008.035.017.07.028.105L3.64,8,1.391,8.6a1.273,1.273,0,0,0,.318,2.5,1.215,1.215,0,0,0,.318-.045L5,10.262,8.213,12.12v3.748L5.018,17.726l-2.968-.8a1.273,1.273,0,0,0-.659,2.457l2.249.6-.6,2.246a1.272,1.272,0,0,0,.9,1.559,1.228,1.228,0,0,0,.319.045,1.273,1.273,0,0,0,1.228-.955l.8-2.965,3.284-1.88,3.181,1.794v3.818L10.57,25.826a1.273,1.273,0,1,0,1.8,1.8h0l1.645-1.645,1.645,1.645a1.273,1.273,0,1,0,1.8-1.8h0l-2.173-2.173V19.835l3.181-1.794,3.274,1.89.792,2.978a1.274,1.274,0,0,0,1.228.954,1.186,1.186,0,0,0,.319-.044,1.273,1.273,0,0,0,.9-1.559l-.6-2.247,2.249-.6a1.273,1.273,0,0,0-.659-2.456ZM10.78,15.8V12.2l3.236-1.829L17.252,12.2v3.6L14.016,17.63Z" transform="translate(-0.451)" fill="#ee5050"></path></svg>