<svg xmlns="http://www.w3.org/2000/svg" viewBox="0 0 20.97 28"><title>Jobs</title><path d="M12.838,10.5h2.333a3.5,3.5,0,0,0,3.5-3.5V2.838a.5.5,0,0,1,.5-.5h0a.475.475,0,0,1,.324.114,8.223,8.223,0,0,1,2.59,6.9,8.033,8.033,0,0,1-2.144,4.413,9.1,9.1,0,0,0-2.441,6.3v6.778a1.167,1.167,0,1,0,2.333,0V20.055a6.789,6.789,0,0,1,1.8-4.7A10.334,10.334,0,0,0,24.4,9.669,10.5,10.5,0,0,0,21.145.791,2.77,2.77,0,0,0,19.176,0a2.838,2.838,0,0,0-2.838,2.838h0V7a1.167,1.167,0,0,1-1.167,1.167H12.838A1.168,1.168,0,0,1,11.671,7V2.838A2.838,2.838,0,0,0,8.833,0h0A2.766,2.766,0,0,0,6.865.791,10.5,10.5,0,0,0,3.61,9.669a10.326,10.326,0,0,0,2.756,5.69,6.789,6.789,0,0,1,1.8,4.7v6.778a1.167,1.167,0,0,0,2.334,0V20.055a9.108,9.108,0,0,0-2.442-6.3A8.036,8.036,0,0,1,5.92,9.348a8.184,8.184,0,0,1,2.59-6.9.471.471,0,0,1,.323-.114.5.5,0,0,1,.5.5V7A3.5,3.5,0,0,0,12.838,10.5Z" transform="translate(-3.519 0)" fill="#27a6ff"></path><path d="M14.005,28a1.166,1.166,0,0,0,1.166-1.167V18.667a1.167,1.167,0,1,0-2.333,0v8.166A1.166,1.166,0,0,0,14.005,28Z" transform="translate(-3.519 0)" fill="#27a6ff"></path></svg>