<svg xmlns="http://www.w3.org/2000/svg" viewBox="0 0 23.331 28"><title>Flags</title><path d="M24.15,17.819l.875-.437a1.167,1.167,0,0,0,.645-1.047V3.5a1.167,1.167,0,0,0-1.689-1.044l-.875.437a5.856,5.856,0,0,1-6.039-.469l-1.814-1.3a6.015,6.015,0,0,0-7.136.082L6.305,2.573a1.167,1.167,0,0,0-.466.93V25.667H3.506a1.167,1.167,0,1,0,0,2.333h7a1.167,1.167,0,1,0,0-2.333H8.172V16.918l1.344-1.009a3.693,3.693,0,0,1,4.375-.05l1.814,1.3A8.192,8.192,0,0,0,24.15,17.819Zm-7.083-2.56-1.814-1.295A6.015,6.015,0,0,0,8.172,14V4.086L9.516,3.077a3.691,3.691,0,0,1,4.375-.049l1.814,1.294A8.184,8.184,0,0,0,23.337,5.34V15.617l-.231.114A5.852,5.852,0,0,1,17.067,15.259Z" transform="translate(-2.339 0)" fill="#27a6ff"></path></svg>