<svg xmlns="http://www.w3.org/2000/svg" viewBox="0 0 28 28"><title>Animals</title><circle cx="9.333" cy="5.833" r="1.167" fill="#ee5050"></circle><path d="M26.838,8.186H15.171V5.853a5.833,5.833,0,1,0-11.666,0H1.171a1.167,1.167,0,0,0,0,2.333H3.505v1.75a12.248,12.248,0,0,0,8.166,11.535v5.382a1.167,1.167,0,0,0,2.334,0V22.046a12.35,12.35,0,0,0,1.75.14,12.373,12.373,0,0,0,1.75-.14v4.807a1.167,1.167,0,0,0,2.333,0V21.471A12.249,12.249,0,0,0,28.005,9.936V9.353A1.167,1.167,0,0,0,26.838,8.186ZM15.755,19.853A9.917,9.917,0,0,1,5.838,9.936V5.853a3.5,3.5,0,0,1,7,0v3.5a1.166,1.166,0,0,0,1.167,1.166H25.654A9.918,9.918,0,0,1,15.755,19.853Z" transform="translate(-0.005 -0.019)" fill="#ee5050"></path></svg>