<svg xmlns="http://www.w3.org/2000/svg" viewBox="0 0 25.666 28"><title>Mascots</title><path d="M7.97,28a4.727,4.727,0,0,0,3.1-1.123l.2-.175a4.281,4.281,0,0,1,5.465,0l.205.178a4.718,4.718,0,0,0,3.1,1.12A4.267,4.267,0,0,0,24.5,23.975v-.726a4.51,4.51,0,0,0-1.6-3.395,13.458,13.458,0,0,1-3.295-4.218l-1.3-2.625a4.758,4.758,0,0,0-4.3-2.511,4.762,4.762,0,0,0-4.3,2.508l-.851,1.727A30.12,30.12,0,0,1,4.61,21.079a4.443,4.443,0,0,0-1.105,2.9A4.267,4.267,0,0,0,7.97,28ZM6.421,22.549a32.068,32.068,0,0,0,4.524-6.782l.855-1.726a2.447,2.447,0,0,1,2.205-1.208,2.445,2.445,0,0,1,2.205,1.211l1.3,2.625a15.88,15.88,0,0,0,3.862,4.958,2.157,2.157,0,0,1,.8,1.622v.726a1.952,1.952,0,0,1-2.132,1.691,2.419,2.419,0,0,1-1.569-.551l-.2-.178a6.508,6.508,0,0,0-8.523,0l-.2.178a2.432,2.432,0,0,1-1.572.551,1.958,1.958,0,0,1-2.132-1.691A2.133,2.133,0,0,1,6.421,22.549Z" transform="translate(-1.171)" fill="#27a6ff"></path><path d="M8.171,11.667V10.5a3.5,3.5,0,1,0-7,0v1.167a3.5,3.5,0,1,0,7,0Zm-4.666,0V10.5a1.167,1.167,0,1,1,2.333,0v1.167a1.167,1.167,0,0,1-2.333,0Z" transform="translate(-1.171)" fill="#27a6ff"></path><path d="M17.505,4.667V3.5a3.5,3.5,0,1,0-7,0V4.667a3.5,3.5,0,1,0,7,0Zm-4.667,0V3.5a1.167,1.167,0,1,1,2.333,0V4.667a1.167,1.167,0,0,1-2.333,0Z" transform="translate(-1.171)" fill="#27a6ff"></path><path d="M26.838,10.5V9.333a3.5,3.5,0,1,0-7,0V10.5a3.5,3.5,0,0,0,7,0Zm-2.334,0a1.167,1.167,0,1,1-2.333,0V9.333a1.167,1.167,0,0,1,2.333,0Z" transform="translate(-1.171)" fill="#27a6ff"></path></svg>