<svg xmlns="http://www.w3.org/2000/svg" viewBox="0 0 28.005 28.004"><title>Transport</title><path d="M23.581,0a4.443,4.443,0,0,0-3.208,1.389l-2.7,2.864L7.215,2.347a1.188,1.188,0,0,0-.857.178l-3.5,2.333A1.167,1.167,0,0,0,2.9,6.83L10.8,11.564c-.7.767-1.394,1.54-2.062,2.287l-5-1a1.168,1.168,0,0,0-1.056.318L.346,15.5a1.167,1.167,0,0,0-.009,1.65,1.183,1.183,0,0,0,.3.22L7.3,20.705l3.325,6.653a1.167,1.167,0,0,0,.863.639,1.459,1.459,0,0,0,.187,0,1.167,1.167,0,0,0,.825-.342l2.334-2.333a1.169,1.169,0,0,0,.318-1.053l-1-5L16.429,17.2l4.743,7.9a1.173,1.173,0,0,0,1.971.035l2.334-3.5a1.183,1.183,0,0,0,.178-.857l-1.9-10.451,2.858-2.692A4.425,4.425,0,0,0,23.581,0Zm1.432,5.95L21.691,9.07a1.166,1.166,0,0,0-.347,1.059l1.931,10.614-1.05,1.572L17.7,14.772a1.167,1.167,0,0,0-1.6-.4,1.113,1.113,0,0,0-.184.137l-3.821,3.471a1.167,1.167,0,0,0-.362,1.094l1.009,5.04-.746.746L9.216,19.32a1.194,1.194,0,0,0-.522-.523L3.152,16.021l.747-.747,5.031,1a1.167,1.167,0,0,0,1.1-.368l.309-.347c1.006-1.126,2.068-2.313,3.141-3.453a1.167,1.167,0,0,0-.049-1.65,1.2,1.2,0,0,0-.2-.15L5.687,5.777l1.575-1.05L17.873,6.658a1.167,1.167,0,0,0,1.059-.347l3.129-3.328a2.091,2.091,0,1,1,2.952,2.963Z" transform="translate(0 0.004)" fill="#ee5050"></path></svg>