<svg xmlns="http://www.w3.org/2000/svg" viewBox="0 0 18.655 28"><title>Military</title><path d="M22.166,0H5.843A1.166,1.166,0,0,0,4.677,1.166V9.327A1.166,1.166,0,0,0,5.383,10.4l4.975,2.134a8.163,8.163,0,1,0,7.287,0L22.621,10.4a1.166,1.166,0,0,0,.711-1.076V1.166A1.166,1.166,0,0,0,22.166,0ZM11.673,2.332h4.663v8.22l-2.331,1.005-2.332-1.005V2.332Zm-4.664,0H9.341V9.558l-2.332-1ZM19.834,19.821a5.83,5.83,0,1,1-5.829-5.83A5.829,5.829,0,0,1,19.834,19.821ZM21,8.558l-2.332,1V2.332H21Z" transform="translate(-4.677)" fill="#27a6ff"></path><path d="M10.507,19.821a3.5,3.5,0,1,0,3.5-3.5A3.5,3.5,0,0,0,10.507,19.821Zm4.663,0a1.166,1.166,0,1,1-1.165-1.166A1.166,1.166,0,0,1,15.17,19.821Z" transform="translate(-4.677)" fill="#27a6ff"></path></svg>