<svg xmlns="http://www.w3.org/2000/svg" viewBox="0 0 28 28"><title>Sports</title><path d="M23.9,4.1A13.96,13.96,0,0,0,14.045,0h-.084A13.97,13.97,0,0,0,.005,13.953v.094A13.97,13.97,0,0,0,13.961,28h.087A13.971,13.971,0,0,0,28.005,14.047v-.094A13.956,13.956,0,0,0,23.9,4.1Zm1.7,8.715a10.747,10.747,0,0,1-6.39-2.374l3.832-3.824A11.6,11.6,0,0,1,25.6,12.816ZM15.9,10.45l-1.9,1.9L6.622,4.958a11.6,11.6,0,0,1,6.233-2.569A13.086,13.086,0,0,0,15.9,10.45ZM15.189,2.4a11.615,11.615,0,0,1,6.2,2.558L17.563,8.791A10.741,10.741,0,0,1,15.189,2.4ZM4.963,6.618,12.354,14l-1.9,1.9A13.081,13.081,0,0,0,2.4,12.851,11.6,11.6,0,0,1,4.963,6.618Zm5.483,12.591A10.738,10.738,0,0,1,12.82,25.6a11.584,11.584,0,0,1-6.2-2.555Zm1.66-1.659,1.9-1.9,7.382,7.391a11.6,11.6,0,0,1-6.233,2.569A13.086,13.086,0,0,0,12.106,17.55Zm-9.7-2.366A10.744,10.744,0,0,1,8.8,17.558L4.963,21.382A11.581,11.581,0,0,1,2.408,15.184Zm20.638,6.2L15.655,14l1.9-1.9a13.081,13.081,0,0,0,8.053,3.048A11.6,11.6,0,0,1,23.046,21.382Z" transform="translate(-0.005)" fill="#27a6ff"></path></svg>