<svg xmlns="http://www.w3.org/2000/svg" viewBox="0 0 28 28"><title>Greek</title><circle cx="14" cy="7" r="1.167" fill="#ee5050"></circle><path d="M1.171,12.833H3.505v8.946L.238,26.133A1.166,1.166,0,0,0,1.171,28H26.838a1.167,1.167,0,0,0,.933-1.867l-3.266-4.354V12.833h2.333A1.166,1.166,0,0,0,28,11.667v-3.5A1.165,1.165,0,0,0,27.4,7.143l-12.833-7a1.166,1.166,0,0,0-1.12,0l-12.834,7A1.167,1.167,0,0,0,.005,8.167v3.5A1.166,1.166,0,0,0,1.171,12.833ZM17.505,21H15.171V12.833h2.334Zm-4.667,0H10.505V12.833h2.333ZM8.171,21H5.838V12.833H8.171ZM3.505,25.667l1.75-2.334h17.5l1.75,2.334ZM22.171,21H19.838V12.833h2.333ZM2.338,8.861,14.005,2.5,25.671,8.861V10.5H2.338Z" transform="translate(-0.005)" fill="#ee5050"></path></svg>