<svg xmlns="http://www.w3.org/2000/svg" viewBox="0 0 27.991 28"><title>Shapes</title><path d="M27.93,10.191a1.165,1.165,0,0,0-.977-.761c-.058,0-5.3-.546-8.425-.82L15.075.7A1.1,1.1,0,0,0,14,0,1.167,1.167,0,0,0,12.934.71L9.568,8.584c-3.12.271-8.457.82-8.515.825a1.167,1.167,0,0,0-.721,1.966l6.2,6.387c-.671,2.808-2.129,8.8-2.129,8.8A1.166,1.166,0,0,0,6.18,27.8L14,22.554,21.811,27.8a1.166,1.166,0,0,0,1.782-1.245s-1.449-5.953-2.126-8.767l6.2-6.39A1.165,1.165,0,0,0,27.93,10.191Zm-8.583,6.434a1.169,1.169,0,0,0-.292,1.082c.333,1.4,1.033,4.284,1.569,6.491l-5.978-4.01a1.168,1.168,0,0,0-1.3,0L7.372,24.207c.54-2.222,1.246-5.13,1.575-6.515a1.166,1.166,0,0,0-.291-1.082L3.7,11.5c2.079-.207,5.019-.5,6.772-.638a1.169,1.169,0,0,0,.977-.706l2.581-6.034,2.639,6.054a1.165,1.165,0,0,0,.971.694c1.75.146,4.634.429,6.679.633Z" transform="translate(-0.009)" fill="#27a6ff"></path></svg>