<svg xmlns="http://www.w3.org/2000/svg" viewBox="0 0 25.667 28"><title>Food</title><path d="M7.005,28a3.5,3.5,0,0,0,3.5-3.5V13.977a5.834,5.834,0,0,0,2.333-4.644v-3.5a5.834,5.834,0,0,0-11.667,0v3.5a5.835,5.835,0,0,0,2.334,4.644V24.5A3.5,3.5,0,0,0,7.005,28ZM3.505,5.833a3.5,3.5,0,0,1,7,0v3.5a3.462,3.462,0,0,1-1.75,3.01,1.169,1.169,0,0,0-.584,1.009V24.5a1.167,1.167,0,1,1-2.333,0V13.352a1.17,1.17,0,0,0-.583-1.009,3.458,3.458,0,0,1-1.75-3.01Z" transform="translate(-1.171)" fill="#27a6ff"></path><path d="M16.338,0a1.167,1.167,0,0,0-1.167,1.167V10.5a3.5,3.5,0,0,0,2.334,3.3V24.5a3.5,3.5,0,0,0,7,0V13.8a3.5,3.5,0,0,0,2.333-3.3V1.167a1.167,1.167,0,1,0-2.333,0V7H22.171V1.167a1.167,1.167,0,1,0-2.333,0V7H17.505V1.167A1.167,1.167,0,0,0,16.338,0Zm8.167,9.333V10.5a1.168,1.168,0,0,1-1.167,1.167,1.167,1.167,0,0,0-1.167,1.166V24.5a1.167,1.167,0,1,1-2.333,0V12.833a1.166,1.166,0,0,0-1.167-1.166A1.167,1.167,0,0,1,17.505,10.5V9.333Z" transform="translate(-1.171)" fill="#27a6ff"></path></svg>